<svg xmlns="http://www.w3.org/2000/svg" viewBox="0 0 110.1 155.99"><defs><style>.cls-1{fill:#e54c21;}.cls-2{fill:#f16524;}.cls-3{fill:none;}.cls-4{fill:#d3d9dd;}.cls-5{fill:#fff;}</style></defs><g id="레이어_2" data-name="레이어 2"><g id="Layer_1" data-name="Layer 1"><polygon class="cls-1" points="55.05 30.64 0 30.64 9.82 143.46 55.05 155.99 100.28 143.46 110.1 30.64 55.05 30.64"/><polygon class="cls-2" points="55.05 39.66 55.05 146.61 91.67 136.46 100.1 39.66 55.05 39.66"/><polygon class="cls-3" points="72.13 95.34 55.05 95.34 55.05 117.94 70.46 113.67 72.13 95.34"/><polygon class="cls-4" points="39.64 113.67 38.61 102.31 24.88 102.31 26.9 124.5 55.05 132.29 55.05 117.94 39.64 113.67"/><polygon class="cls-5" points="88.42 67.25 89.68 53.48 55.05 53.48 55.05 67.25 88.42 67.25"/><polygon class="cls-4" points="35.32 67.25 55.05 67.25 55.05 53.48 20.43 53.48 24.24 95.34 37.97 95.34 42.08 95.34 55.05 95.34 55.05 81.73 36.68 81.73 35.32 67.25"/><polygon class="cls-5" points="72.13 95.34 70.46 113.67 55.05 117.94 55.05 132.29 83.2 124.5 87.1 81.73 55.05 81.73 55.05 95.34 72.13 95.34"/><polygon points="23.9 7.04 17.51 7.04 17.51 0 10.48 0 10.48 21.1 17.51 21.1 17.51 14.06 23.9 14.06 23.9 21.1 30.93 21.1 30.93 0 23.9 0 23.9 7.04"/><polygon points="100.69 14.06 90.67 14.06 90.67 0 83.64 0 83.64 14.06 83.64 21.09 83.64 21.1 90.67 21.1 90.67 21.09 100.69 21.09 100.69 14.06"/><polygon points="40.23 0 34 0 34 7.03 40.23 7.03 40.23 21.1 47.26 21.1 47.26 7.03 53.32 7.03 53.32 0 47.26 0 40.23 0"/><polygon points="72.87 0 68.35 7.26 63.83 0 63.34 0 56.56 0 56.56 21.1 63.34 21.1 63.34 10.62 68.28 18.2 73.35 10.41 73.35 21.1 80.14 21.1 80.14 0 73.35 0 72.87 0"/></g></g></svg>