<svg xmlns="http://www.w3.org/2000/svg" viewBox="0 0 110.52 156.16"><defs><style>.cls-1{fill:#264de4;}.cls-2{fill:#2965f1;}.cls-3{fill:none;}.cls-4{fill:#d3d9dd;}.cls-5{fill:#fff;}</style></defs><g id="레이어_2" data-name="레이어 2"><g id="Layer_1" data-name="Layer 1"><polygon class="cls-1" points="55.26 30.34 0 30.34 9.86 143.59 55.26 156.16 100.67 143.59 110.52 30.34 55.26 30.34"/><polygon class="cls-2" points="55.26 39.39 55.26 146.75 92.02 136.57 100.48 39.39 55.26 39.39"/><polygon class="cls-3" points="72.41 95.28 55.26 95.28 55.26 117.97 70.73 113.68 72.41 95.28"/><polygon class="cls-4" points="39.8 113.68 38.76 102.28 24.98 102.28 27.01 124.56 55.26 132.38 55.26 117.97 39.8 113.68"/><polygon class="cls-4" points="21.77 67.09 20.5 53.27 55.26 53.27 55.26 67.09 21.77 67.09"/><polygon class="cls-5" points="90.02 53.27 55.26 53.27 55.26 67.09 75.07 67.09 73.7 81.63 55.26 81.63 55.26 95.28 68.29 95.28 72.41 95.28 70.73 113.68 55.26 117.97 55.26 132.38 83.52 124.56 87.43 81.63 87.43 81.63 90.02 53.27"/><polygon class="cls-4" points="24.34 95.28 38.12 95.28 42.24 95.28 55.26 95.28 55.26 81.63 36.82 81.63 23.09 81.63 24.34 95.28"/><polygon points="42.93 6.96 42.93 0 26.06 0 26.06 1.01 26.06 6.96 26.06 14.13 26.06 17.88 26.06 21.09 42.93 21.09 42.93 14.13 33.02 14.13 33.02 6.96 42.93 6.96"/><polygon points="83.04 21.18 83.04 14.86 83.04 13.76 83.04 7.44 76.16 7.44 73.3 7.44 73.3 6.01 83.04 6.01 83.04 0 73.3 0 66.43 0 66.43 6.01 66.43 7.44 66.43 13.72 66.43 13.76 76.16 13.76 76.16 14.86 66.43 14.86 66.43 21.18 76.16 21.18 83.04 21.18"/><polygon points="56.12 21.18 63 21.18 63 14.86 63 13.76 63 7.44 56.12 7.44 53.26 7.44 53.26 6.01 63 6.01 63 0 53.26 0 46.38 0 46.38 6.01 46.38 7.44 46.38 13.72 46.38 13.76 56.12 13.76 56.12 14.86 46.38 14.86 46.38 21.18 46.58 21.18 56.12 21.18"/></g></g></svg>